<svg width="31" height="30" viewBox="0 0 31 30" fill="none" xmlns="http://www.w3.org/2000/svg">
<path d="M30.1847 0H0.815278C0.365764 0 0 0.371144 0 0.827271V29.1727C0 29.6289 0.365764 30 0.815278 30H0.928306C1.37789 30 1.74358 29.6289 1.74358 29.1727V22.3032H2.89995V28.561C2.89995 28.9278 3.1824 29.2151 3.54298 29.2151C3.56017 29.2151 3.57766 29.2143 3.59538 29.213L13.0062 28.458C13.3633 28.4293 13.6431 28.1221 13.6431 27.7586V5.70441C13.6431 5.35553 13.3771 5.03966 13.0376 4.98521L3.62124 3.47446C3.58708 3.46897 3.55239 3.46619 3.51822 3.46619C3.17151 3.46619 2.89987 3.74453 2.89987 4.0998V7.20741H1.74358V1.85692C1.74358 1.81616 1.77753 1.78172 1.8177 1.78172H29.1822C29.2224 1.78172 29.2563 1.81616 29.2563 1.85692V7.20741H28.1V4.09973C28.1 3.74445 27.8283 3.46611 27.4816 3.46611C27.4475 3.46611 27.4128 3.4689 27.3786 3.47439L17.9624 4.98521C17.6229 5.03973 17.3569 5.3556 17.3569 5.70441V27.7586C17.3569 28.1221 17.6366 28.4293 17.9938 28.458L27.4048 29.213C27.4223 29.2144 27.4398 29.2151 27.457 29.2151C27.6296 29.2151 27.7914 29.1476 27.9122 29.025C28.0333 28.9021 28.1001 28.7374 28.1001 28.561V22.3032H29.2564V29.1727C29.2564 29.6289 29.6222 30 30.0717 30H30.1847C30.6342 30 31 29.6289 31 29.1727V0.827271C31 0.371069 30.6342 0 30.1847 0ZM11.7708 14.4809C11.7708 14.2732 11.9367 14.1049 12.1414 14.1049C12.3461 14.1049 12.512 14.2732 12.512 14.4809V17.8394C12.512 18.0471 12.3461 18.2155 12.1414 18.2155C11.9367 18.2155 11.7708 18.0471 11.7708 17.8394V14.4809ZM2.89995 9.51595V19.9947H1.74358V9.51595H2.89995ZM19.3122 17.8394C19.3122 18.0471 19.1463 18.2155 18.9416 18.2155C18.7369 18.2155 18.571 18.0471 18.571 17.8394V14.4809C18.571 14.2732 18.7369 14.1049 18.9416 14.1049C19.1463 14.1049 19.3122 14.2732 19.3122 14.4809V17.8394ZM29.2563 19.9947H28.1V9.51595H29.2563V19.9947Z" fill="#6B4902"/>
</svg>
