<svg width="32" height="32" viewBox="0 0 32 32" fill="none" xmlns="http://www.w3.org/2000/svg">
<g clip-path="url(#clip0_41_422)">
<path d="M16 31C24.2843 31 31 24.2843 31 16C31 7.71573 24.2843 1 16 1C7.71573 1 1 7.71573 1 16C1 24.2843 7.71573 31 16 31Z" stroke="black" stroke-width="2" stroke-miterlimit="10" stroke-linecap="round" stroke-linejoin="round"/>
<path d="M20.2 14.7C19.7 15.6 18.9 16.1 17.8 16.2C17.2 16.3 16.8 15.9 16.8 15.4C16.7 14.3 16.7 13.2 16.5 12.1C16.3 10.9 15.7 9.9 14.9 9C14.9 9 14.8 9 14.8 9.1C14.3 10.4 13.4 11.5 12.6 12.7C11.5 14.1 11 15.7 11 17.5C11.1 19.9 13.4 22.1 16 22C18.4 22 20.5 20.3 20.9 18.1C21.2 16.9 21 15.4 20.5 14.3C20.4 14.5 20.3 14.6 20.2 14.7Z" fill="#EE3E03" stroke="#EE3E03" stroke-width="2" stroke-miterlimit="10" stroke-linejoin="round"/>
<path d="M26.8 14.0002C26 9.5002 22.5 6.0002 18 5.2002" stroke="#FF6F3F" stroke-width="2" stroke-miterlimit="10" stroke-linecap="round" stroke-linejoin="round"/>
<path d="M14 5.2002C9.49995 6.0002 5.99995 9.5002 5.19995 14.0002" stroke="#FF6F3F" stroke-width="2" stroke-miterlimit="10" stroke-linecap="round" stroke-linejoin="round"/>
<path d="M18 26.8C22.5 26 26 22.5 26.8 18" stroke="#FF6F3F" stroke-width="2" stroke-miterlimit="10" stroke-linecap="round" stroke-linejoin="round"/>
<path d="M5.19995 18C5.99995 22.5 9.49995 26 14 26.8" stroke="#FF6F3F" stroke-width="2" stroke-miterlimit="10" stroke-linecap="round" stroke-linejoin="round"/>
</g>
<defs>
<clipPath id="clip0_41_422">
<rect width="32" height="32" fill="white"/>
</clipPath>
</defs>
</svg>
