<svg width="22" height="30" viewBox="0 0 22 30" fill="none" xmlns="http://www.w3.org/2000/svg">
<path d="M21.8699 11.49L11.8699 29.49C11.6899 29.81 11.3599 30 10.9999 30C10.9199 30 10.8299 29.99 10.7499 29.97C10.3099 29.85 9.9999 29.46 9.9999 29V18H0.999902C0.659902 18 0.349902 17.83 0.159902 17.55C-0.0200977 17.27 -0.0500976 16.91 0.0799024 16.6L7.0799 0.6C7.2399 0.24 7.5999 0 7.9999 0H13.9999C14.3299 0 14.6399 0.16 14.8299 0.44C15.0099 0.71 15.0499 1.06 14.9299 1.37L11.4799 10H20.9999C21.3499 10 21.6799 10.19 21.8599 10.49C22.0399 10.8 22.0499 11.18 21.8699 11.49Z" fill="#58F142"/>
</svg>
