<svg width="24" height="24" viewBox="0 0 24 24" fill="none" xmlns="http://www.w3.org/2000/svg">
<path fill-rule="evenodd" clip-rule="evenodd" d="M16.3739 9.75669C16.378 9.85363 16.3807 9.95056 16.3807 10.0489C16.3807 13.0306 14.1106 16.4694 9.9595 16.4694C8.68487 16.4694 7.49894 16.0961 6.5 15.4561C6.67669 15.4767 6.85612 15.487 7.03831 15.487C8.09569 15.487 9.0685 15.1267 9.84125 14.5211C8.85331 14.5032 8.02006 13.8507 7.73269 12.9543C7.87088 12.9804 8.01181 12.9941 8.15756 12.9941C8.36313 12.9941 8.5625 12.9666 8.75225 12.9151C7.71962 12.7081 6.94206 11.7958 6.94206 10.7027V10.6738C7.24594 10.8429 7.5945 10.9447 7.96438 10.9564C7.35869 10.5514 6.95994 9.8605 6.95994 9.07812C6.95994 8.66425 7.07131 8.2765 7.26588 7.94306C8.37894 9.30844 10.042 10.207 11.9175 10.3012C11.879 10.1362 11.8591 9.96362 11.8591 9.78694C11.8591 8.5405 12.8697 7.52988 14.1154 7.52988C14.7651 7.52988 15.3516 7.80419 15.7627 8.24281C16.2769 8.14175 16.7603 7.95406 17.1961 7.69556C17.0277 8.22219 16.6695 8.66425 16.2041 8.94406C16.6606 8.88906 17.0951 8.76806 17.5 8.58862C17.1975 9.041 16.8146 9.43838 16.3739 9.75669ZM12 1C5.92456 1 1 5.92456 1 12C1 18.0748 5.92456 23 12 23C18.0754 23 23 18.0748 23 12C23 5.92456 18.0754 1 12 1" fill="#41A1F2"/>
</svg>
