<svg width="22" height="22" viewBox="0 0 22 22" fill="none" xmlns="http://www.w3.org/2000/svg">
<g clip-path="url(#clip0_24_584)">
<path d="M8.899 16.8154V17.15C8.899 18.3095 9.8395 19.25 11 19.25C12.1605 19.25 13.101 18.3095 13.101 17.149V16.8145" stroke="#A2A2A7" stroke-width="1.3" stroke-linecap="round" stroke-linejoin="round"/>
<path d="M12.6803 5.27175V4.43025C12.6803 3.50258 11.9286 2.75 11 2.75C10.0714 2.75 9.31975 3.50258 9.31975 4.43025V5.27175" stroke="#A2A2A7" stroke-width="1.3" stroke-linecap="round" stroke-linejoin="round"/>
<path d="M6.01608 9.33896C6.01608 7.04455 7.876 5.18555 10.1695 5.18555H11.8314C14.1258 5.18555 15.9848 7.04546 15.9848 9.33896V11.9029C15.9848 12.3887 16.1782 12.8553 16.522 13.199L17.1096 13.7866C17.4533 14.1304 17.6467 14.597 17.6467 15.0828C17.6467 16.0398 16.8712 16.8153 15.9142 16.8153H6.08667C5.12967 16.8153 4.35417 16.0398 4.35417 15.0828C4.35417 14.597 4.54758 14.1304 4.89133 13.7866L5.47892 13.199C5.82267 12.8553 6.01608 12.3887 6.01608 11.9029V9.33896Z" stroke="#A2A2A7" stroke-width="1.3" stroke-linecap="round" stroke-linejoin="round"/>
</g>
<defs>
<clipPath id="clip0_24_584">
<rect width="22" height="22" fill="white"/>
</clipPath>
</defs>
</svg>
