<svg width="22" height="22" viewBox="0 0 22 22" fill="none" xmlns="http://www.w3.org/2000/svg">
<g clip-path="url(#clip0_24_590)">
<path d="M8.42233 15.5835L10.175 17.921C10.5875 18.471 11.4125 18.471 11.825 17.921L13.5777 15.5835H16.5C18.0189 15.5835 19.25 14.3524 19.25 12.8335V7.3335C19.25 5.81458 18.0189 4.5835 16.5 4.5835H5.5C3.98108 4.5835 2.75 5.81458 2.75 7.3335V12.8335C2.75 14.3524 3.98108 15.5835 5.5 15.5835H8.42233Z" stroke="#A2A2A7" stroke-width="1.3" stroke-linecap="round" stroke-linejoin="round"/>
<path d="M11.1622 10.3795C11.2521 10.4694 11.2521 10.6142 11.1622 10.704C11.0724 10.7939 10.9276 10.7939 10.8377 10.704C10.7479 10.6142 10.7479 10.4694 10.8377 10.3795C10.9276 10.2897 11.0724 10.2906 11.1622 10.3795Z" stroke="#A2A2A7" stroke-width="1.3" stroke-linecap="round" stroke-linejoin="round"/>
<path d="M14.8289 10.3795C14.9187 10.4694 14.9187 10.6142 14.8289 10.704C14.7391 10.7939 14.5942 10.7939 14.5044 10.704C14.4146 10.6142 14.4146 10.4694 14.5044 10.3795C14.5942 10.2897 14.7391 10.2906 14.8289 10.3795Z" stroke="#A2A2A7" stroke-width="1.3" stroke-linecap="round" stroke-linejoin="round"/>
<path d="M7.49558 10.3795C7.58542 10.4694 7.58542 10.6142 7.49558 10.704C7.40575 10.7939 7.26092 10.7939 7.17108 10.704C7.08125 10.6142 7.08125 10.4694 7.17108 10.3795C7.26092 10.2897 7.40575 10.2906 7.49558 10.3795Z" stroke="#A2A2A7" stroke-width="1.3" stroke-linecap="round" stroke-linejoin="round"/>
</g>
<defs>
<clipPath id="clip0_24_590">
<rect width="22" height="22" fill="white"/>
</clipPath>
</defs>
</svg>
