<svg width="22" height="22" viewBox="0 0 22 22" fill="none" xmlns="http://www.w3.org/2000/svg">
<g clip-path="url(#clip0_24_602)">
<path d="M12.6205 9.37971C13.5154 10.2747 13.5154 11.7257 12.6205 12.6206C11.7255 13.5156 10.2745 13.5156 9.37958 12.6206C8.48463 11.7257 8.48463 10.2747 9.37958 9.37971C10.2745 8.48476 11.7255 8.48476 12.6205 9.37971Z" stroke="#A2A2A7" stroke-width="1.3" stroke-linecap="round" stroke-linejoin="round"/>
<path d="M13.6116 3.77669L14.146 3.95452C14.6355 4.11769 14.9664 4.57602 14.9664 5.0921V5.85935C14.9664 6.51202 15.4871 7.0446 16.1398 7.05835L16.9079 7.07485C17.3525 7.08402 17.7558 7.33977 17.9548 7.7376L18.2068 8.24177C18.4378 8.70377 18.3471 9.2611 17.9823 9.62594L17.4396 10.1686C16.9785 10.6297 16.9703 11.3749 17.4213 11.8461L17.9529 12.4016C18.2609 12.7234 18.3654 13.1881 18.2243 13.6107L18.0464 14.1451C17.8833 14.6346 17.4249 14.9655 16.9088 14.9655H16.1416C15.4889 14.9655 14.9563 15.4862 14.9426 16.1389L14.9261 16.907C14.9169 17.3516 14.6612 17.7549 14.2633 17.9539L13.7592 18.2059C13.2972 18.4369 12.7398 18.3462 12.375 17.9814L11.8323 17.4387C11.3713 16.9776 10.626 16.9694 10.1548 17.4204L9.59933 17.952C9.27758 18.26 8.81283 18.3645 8.39025 18.2234L7.85583 18.0455C7.36633 17.8824 7.03542 17.424 7.03542 16.9079V16.1407C7.03542 15.488 6.51475 14.9554 5.86208 14.9417L5.09392 14.9252C4.64933 14.916 4.246 14.6603 4.04708 14.2624L3.795 13.7583C3.564 13.2963 3.65475 12.7389 4.01958 12.3741L4.56225 11.8314C5.02333 11.3704 5.03158 10.6251 4.58058 10.1539L4.04892 9.59844C3.74 9.27577 3.6355 8.8101 3.77667 8.38844L3.9545 7.85402C4.11767 7.36452 4.576 7.0336 5.09208 7.0336H5.85933C6.512 7.0336 7.04458 6.51294 7.05833 5.86027L7.07483 5.0921C7.08583 4.64752 7.34067 4.24419 7.7385 4.04527L8.24267 3.79319C8.70467 3.56219 9.262 3.65294 9.62683 4.01777L10.1695 4.56044C10.6306 5.02152 11.3758 5.02977 11.847 4.57877L12.4025 4.0471C12.7243 3.74002 13.1899 3.63552 13.6116 3.77669Z" stroke="#A2A2A7" stroke-width="1.3" stroke-linecap="round" stroke-linejoin="round"/>
</g>
<defs>
<clipPath id="clip0_24_602">
<rect width="22" height="22" fill="white"/>
</clipPath>
</defs>
</svg>
