<svg width="22" height="22" viewBox="0 0 22 22" fill="none" xmlns="http://www.w3.org/2000/svg">
<path d="M13.494 5.04183V3.66683C13.494 2.65431 12.6732 1.8335 11.6606 1.8335H10.744C9.73146 1.8335 8.91064 2.65431 8.91064 3.66683V5.04183M13.7233 11.6875L13.2649 17.6459M8.22323 11.6875L8.68157 17.6459M4.17389 7.78752H17.7723L16.7453 18.1464C16.6058 19.5532 15.4224 20.6251 14.0087 20.6251H7.93748C6.52378 20.6251 5.34038 19.5532 5.2009 18.1464L4.17389 7.78752ZM4.57588 7.78752H17.3705C17.6223 7.78752 17.8581 7.66426 18.0018 7.45754C18.7108 6.43783 17.9811 5.04172 16.7391 5.04172H5.20722C3.96525 5.04172 3.23555 6.43783 3.94455 7.45754C4.08828 7.66426 4.32411 7.78752 4.57588 7.78752Z" stroke="#B22023" stroke-width="1.5" stroke-linecap="round"/>
</svg>
