<svg width="28" height="30" viewBox="0 0 28 30" fill="none" xmlns="http://www.w3.org/2000/svg">
<path d="M18.4311 17.475C18.4311 22.3181 15.6814 24.3017 12.2933 24.3017C8.9052 24.3017 6.15552 22.3181 6.15552 17.475C6.15552 12.6319 12.2933 4.81937 12.2933 4.81937C12.2933 4.81937 18.4311 12.6319 18.4311 17.475Z" fill="#44C0C6"/>
<path d="M12.2933 24.6075C10.4255 24.6075 8.84876 24.0255 7.73523 22.9209C6.48213 21.6797 5.84668 19.8446 5.84668 17.472C5.84668 15.4083 6.89488 12.6141 8.95863 9.16955C10.4849 6.62476 12.0349 4.64713 12.0498 4.62634C12.1092 4.55211 12.1983 4.50757 12.2903 4.50757C12.3853 4.50757 12.4744 4.55211 12.5308 4.62634C12.5457 4.64713 14.0957 6.62476 15.622 9.16955C17.6887 12.6141 18.7339 15.4053 18.7339 17.472C18.7339 19.8446 18.0985 21.6767 16.8454 22.9209C15.7378 24.0226 14.161 24.6075 12.2933 24.6075ZM12.2933 5.32416C11.8033 5.97446 10.6363 7.56903 9.48421 9.49322C8.1064 11.7915 6.46135 15.0431 6.46135 17.472C6.46135 19.6753 7.03445 21.362 8.16876 22.4844C9.16352 23.4703 10.5888 23.9929 12.2933 23.9929C13.9977 23.9929 15.423 23.4703 16.4178 22.4844C17.5491 21.362 18.1252 19.6753 18.1252 17.472C18.1252 15.0431 16.4831 11.7915 15.1023 9.49322C13.9502 7.572 12.7832 5.97743 12.2933 5.32416Z" fill="black"/>
<path d="M17.6799 3.18915C17.6799 3.95385 17.9837 4.68723 18.5244 5.22795C19.0652 5.76868 19.7985 6.07245 20.5632 6.07245C21.3279 6.07245 22.0613 5.76868 22.602 5.22795C23.1428 4.68723 23.4465 3.95385 23.4465 3.18915C23.4465 2.42445 23.1428 1.69107 22.602 1.15035C22.0613 0.609623 21.3279 0.305847 20.5632 0.305847C19.7985 0.305847 19.0652 0.609623 18.5244 1.15035C17.9837 1.69107 17.6799 2.42445 17.6799 3.18915Z" fill="#80F9E7"/>
<path d="M20.5632 6.3783C18.8053 6.3783 17.374 4.94705 17.374 3.18915C17.374 1.43126 18.8053 0 20.5632 0C22.3211 0 23.7523 1.43126 23.7523 3.18915C23.7523 4.94705 22.324 6.3783 20.5632 6.3783ZM20.5632 0.611699C19.1438 0.611699 17.9857 1.7668 17.9857 3.18915C17.9857 4.60853 19.1408 5.7666 20.5632 5.7666C21.9855 5.7666 23.1406 4.6115 23.1406 3.18915C23.1406 1.76977 21.9855 0.611699 20.5632 0.611699Z" fill="black"/>
<path d="M15.5508 14.9748C15.5508 15.3039 15.6156 15.6298 15.7416 15.9338C15.8675 16.2379 16.0521 16.5142 16.2848 16.7469C16.5175 16.9796 16.7938 17.1642 17.0979 17.2902C17.402 17.4161 17.7278 17.4809 18.057 17.4809C18.3861 17.4809 18.712 17.4161 19.016 17.2902C19.3201 17.1642 19.5964 16.9796 19.8291 16.7469C20.0618 16.5142 20.2464 16.2379 20.3724 15.9338C20.4983 15.6298 20.5632 15.3039 20.5632 14.9748C20.5632 14.6456 20.4983 14.3197 20.3724 14.0157C20.2464 13.7116 20.0618 13.4353 19.8291 13.2026C19.5964 12.9699 19.3201 12.7853 19.016 12.6593C18.712 12.5334 18.3861 12.4686 18.057 12.4686C17.7278 12.4686 17.402 12.5334 17.0979 12.6593C16.7938 12.7853 16.5175 12.9699 16.2848 13.2026C16.0521 13.4353 15.8675 13.7116 15.7416 14.0157C15.6156 14.3197 15.5508 14.6456 15.5508 14.9748Z" fill="#80F9E7"/>
<path d="M18.0569 17.7898C16.5039 17.7898 15.2419 16.5278 15.2419 14.9748C15.2419 13.4218 16.5039 12.1598 18.0569 12.1598C19.61 12.1598 20.872 13.4218 20.872 14.9748C20.872 16.5278 19.607 17.7898 18.0569 17.7898ZM18.0569 12.7744C16.8425 12.7744 15.8566 13.7603 15.8566 14.9748C15.8566 16.1892 16.8425 17.1751 18.0569 17.1751C19.2714 17.1751 20.2573 16.1892 20.2573 14.9748C20.2573 13.7603 19.2685 12.7744 18.0569 12.7744Z" fill="black"/>
<path d="M2.5625 27.185C2.5625 27.8497 2.82654 28.4871 3.29654 28.9571C3.76655 29.4271 4.404 29.6912 5.06869 29.6912C5.73337 29.6912 6.37083 29.4271 6.84083 28.9571C7.31083 28.4871 7.57487 27.8497 7.57487 27.185C7.57487 26.5203 7.31083 25.8829 6.84083 25.4129C6.37083 24.9429 5.73337 24.6788 5.06869 24.6788C4.404 24.6788 3.76655 24.9429 3.29654 25.4129C2.82654 25.8829 2.5625 26.5203 2.5625 27.185Z" fill="#80F9E7"/>
<path d="M5.06891 30C3.51591 30 2.25391 28.738 2.25391 27.185C2.25391 25.632 3.51591 24.37 5.06891 24.37C6.62192 24.37 7.88392 25.632 7.88392 27.185C7.88392 28.738 6.62192 30 5.06891 30ZM5.06891 24.9847C3.85442 24.9847 2.86858 25.9705 2.86858 27.185C2.86858 28.3995 3.85442 29.3853 5.06891 29.3853C6.2834 29.3853 7.26925 28.3995 7.26925 27.185C7.26925 25.9735 6.2834 24.9847 5.06891 24.9847Z" fill="black"/>
<path d="M23.6841 18.2411C23.6841 18.7444 23.884 19.227 24.2398 19.5828C24.5957 19.9387 25.0783 20.1386 25.5815 20.1386C26.0848 20.1386 26.5674 19.9387 26.9232 19.5828C27.2791 19.227 27.479 18.7444 27.479 18.2411C27.479 17.7379 27.2791 17.2553 26.9232 16.8994C26.5674 16.5436 26.0848 16.3437 25.5815 16.3437C25.0783 16.3437 24.5957 16.5436 24.2398 16.8994C23.884 17.2553 23.6841 17.7379 23.6841 18.2411Z" fill="#80F9E7"/>
<path d="M25.5815 20.4474C24.367 20.4474 23.3782 19.4586 23.3782 18.2441C23.3782 17.0296 24.367 16.0408 25.5815 16.0408C26.796 16.0408 27.7848 17.0296 27.7848 18.2441C27.7848 19.4586 26.796 20.4474 25.5815 20.4474ZM25.5815 16.6525C24.7055 16.6525 23.9899 17.3651 23.9899 18.2441C23.9899 19.1201 24.7025 19.8357 25.5815 19.8357C26.4575 19.8357 27.1731 19.123 27.1731 18.2441C27.1731 17.3651 26.4575 16.6525 25.5815 16.6525Z" fill="black"/>
<path d="M4.18091 6.39315C4.18091 6.89639 4.38082 7.37902 4.73666 7.73486C5.0925 8.0907 5.57513 8.29061 6.07836 8.29061C6.5816 8.29061 7.06423 8.0907 7.42007 7.73486C7.77591 7.37902 7.97582 6.89639 7.97582 6.39315C7.97582 5.88992 7.77591 5.40729 7.42007 5.05145C7.06423 4.69561 6.5816 4.4957 6.07836 4.4957C5.57513 4.4957 5.0925 4.69561 4.73666 5.05145C4.38082 5.40729 4.18091 5.88992 4.18091 6.39315Z" fill="#80F9E7"/>
<path d="M6.07831 8.59646C4.86382 8.59646 3.875 7.60765 3.875 6.39316C3.875 5.17866 4.86382 4.18985 6.07831 4.18985C7.2928 4.18985 8.28161 5.17866 8.28161 6.39316C8.28161 7.60765 7.29577 8.59646 6.07831 8.59646ZM6.07831 4.80155C5.20233 4.80155 4.4867 5.51421 4.4867 6.39316C4.4867 7.2721 5.19936 7.98476 6.07831 7.98476C6.95428 7.98476 7.66991 7.2721 7.66991 6.39316C7.66991 5.51421 6.95725 4.80155 6.07831 4.80155Z" fill="black"/>
<path d="M18.0571 27.3691C18.0571 27.7983 18.2276 28.2099 18.5311 28.5134C18.8346 28.8169 19.2463 28.9874 19.6755 28.9874C20.1047 28.9874 20.5163 28.8169 20.8198 28.5134C21.1233 28.2099 21.2938 27.7983 21.2938 27.3691C21.2938 26.9399 21.1233 26.5283 20.8198 26.2248C20.5163 25.9213 20.1047 25.7508 19.6755 25.7508C19.2463 25.7508 18.8346 25.9213 18.5311 26.2248C18.2276 26.5283 18.0571 26.9399 18.0571 27.3691Z" fill="#80F9E7"/>
<path d="M19.6754 29.2962C18.6124 29.2962 17.7483 28.4321 17.7483 27.3691C17.7483 26.306 18.6124 25.4419 19.6754 25.4419C20.7385 25.4419 21.6026 26.306 21.6026 27.3691C21.6026 28.4321 20.7385 29.2962 19.6754 29.2962ZM19.6754 26.0566C18.9509 26.0566 18.363 26.6446 18.363 27.3691C18.363 28.0936 18.9509 28.6816 19.6754 28.6816C20.4 28.6816 20.9879 28.0936 20.9879 27.3691C20.9879 26.6446 20.4 26.0566 19.6754 26.0566Z" fill="black"/>
<path d="M0.305908 14.4076C0.305908 14.9219 0.510198 15.4151 0.873836 15.7787C1.23747 16.1423 1.73067 16.3466 2.24494 16.3466C2.7592 16.3466 3.2524 16.1423 3.61604 15.7787C3.97967 15.4151 4.18396 14.9219 4.18396 14.4076C4.18396 13.8933 3.97967 13.4001 3.61604 13.0365C3.2524 12.6729 2.7592 12.4686 2.24494 12.4686C1.73067 12.4686 1.23747 12.6729 0.873836 13.0365C0.510198 13.4001 0.305908 13.8933 0.305908 14.4076Z" fill="#80F9E7"/>
<path d="M2.24488 16.6525C1.00663 16.6525 0 15.6458 0 14.4076C0 13.1694 1.00663 12.1627 2.24488 12.1627C3.48312 12.1627 4.48976 13.1694 4.48976 14.4076C4.48976 15.6458 3.48312 16.6525 2.24488 16.6525ZM2.24488 12.7744C1.34514 12.7744 0.611699 13.5079 0.611699 14.4076C0.611699 15.3073 1.34514 16.0408 2.24488 16.0408C3.14461 16.0408 3.87806 15.3073 3.87806 14.4076C3.87509 13.5049 3.14461 12.7744 2.24488 12.7744Z" fill="black"/>
</svg>
