<svg width="30" height="24" viewBox="0 0 30 24" fill="none" xmlns="http://www.w3.org/2000/svg">
<path d="M0.515869 2.08751V21.0848C0.515818 21.2911 0.55643 21.4955 0.635387 21.6862C0.714343 21.8769 0.830096 22.0501 0.976032 22.1961C1.12197 22.342 1.29523 22.4578 1.48591 22.5367C1.6766 22.6157 1.88097 22.6563 2.08735 22.6562H27.9147C28.3314 22.6561 28.731 22.4905 29.0257 22.1958C29.3203 21.9011 29.4858 21.5015 29.4858 21.0848V2.08751C29.4858 1.88116 29.4452 1.67682 29.3663 1.48616C29.2874 1.2955 29.1717 1.12226 29.0258 0.976326C28.8799 0.830395 28.7067 0.714634 28.516 0.635655C28.3254 0.556676 28.121 0.516026 27.9147 0.516026H2.08735C1.88097 0.515974 1.6766 0.556587 1.48591 0.635543C1.29523 0.714499 1.12197 0.830252 0.976032 0.976188C0.830096 1.12212 0.714343 1.29538 0.635387 1.48607C0.55643 1.67675 0.515818 1.88112 0.515869 2.08751Z" fill="white"/>
<path d="M10.3308 11.586C10.3307 12.7223 10.5545 13.8475 10.9893 14.8974C11.4241 15.9472 12.0615 16.9012 12.8649 17.7047C13.6684 18.5083 14.6223 19.1457 15.6722 19.5805C16.722 20.0154 17.8472 20.2392 18.9835 20.2392C20.1199 20.2392 21.2451 20.0154 22.2949 19.5805C23.3448 19.1457 24.2987 18.5083 25.1021 17.7047C25.9056 16.9012 26.543 15.9472 26.9778 14.8974C27.4126 13.8475 27.6364 12.7223 27.6363 11.586C27.6364 10.4496 27.4126 9.3244 26.9778 8.27454C26.543 7.22468 25.9056 6.27075 25.1021 5.46721C24.2987 4.66367 23.3448 4.02627 22.2949 3.59139C21.2451 3.15652 20.1199 2.93269 18.9835 2.93269C17.8472 2.93269 16.722 3.15652 15.6722 3.59139C14.6223 4.02627 13.6684 4.66367 12.8649 5.46721C12.0615 6.27075 11.4241 7.22468 10.9893 8.27454C10.5545 9.3244 10.3307 10.4496 10.3308 11.586Z" fill="#4D4D4D"/>
<path d="M12.043 11.4891C12.043 13.5145 14.1266 14.8703 15.9785 14.0492L17.8012 13.2422C17.5238 13.0447 17.3005 12.7806 17.1519 12.4743C17.0032 12.1679 16.9339 11.8292 16.9504 11.4891H12.043ZM18.8871 13.6176V18.5254C20.9117 18.5254 22.2676 16.441 21.4473 14.5894L20.6398 12.766C20.4425 13.0435 20.1785 13.2669 19.8723 13.4157C19.566 13.5645 19.2272 13.6339 18.8871 13.6176ZM20.1633 9.9293C20.4407 10.1267 20.6641 10.3906 20.8128 10.6969C20.9615 11.0032 21.0309 11.3419 21.0145 11.682H25.9227C25.9227 9.65664 23.8391 8.30078 21.9875 9.12109L20.1637 9.92851L20.1633 9.9293ZM19.0793 9.55351V4.64531C17.0543 4.64531 15.6984 6.72891 16.5188 8.58086L17.3258 10.4043C17.5233 10.1268 17.7874 9.90343 18.0938 9.75476C18.4002 9.60608 18.7391 9.53688 19.0793 9.55351Z" fill="#FAFFF9"/>
<path d="M19.079 9.55312C18.7389 9.53644 18.4 9.60563 18.0936 9.75431C17.7873 9.90299 17.5232 10.1264 17.3259 10.4039C17.079 10.7483 16.9467 11.1617 16.9478 11.5855C16.9478 12.2687 17.2845 12.873 17.8013 13.2418H17.8021C18.1459 13.4888 18.5588 13.6211 18.9821 13.6199C19.6657 13.6199 20.2708 13.2832 20.6392 12.7656C20.8853 12.4214 21.0174 12.0087 21.0169 11.5855C21.0174 11.2612 20.9401 10.9416 20.7915 10.6533C20.6429 10.3651 20.4274 10.1167 20.163 9.9289C19.8456 9.70138 19.4691 9.57084 19.079 9.55312Z" fill="#FAFFF9"/>
<path d="M13.6554 19.0485C15.208 20.1616 17.0715 20.7583 18.9819 20.7539C24.037 20.7539 28.1503 16.641 28.1503 11.5856C28.1503 6.5301 24.037 2.41721 18.9819 2.41721C13.9269 2.41721 9.81397 6.5301 9.81397 11.5856C9.81246 13.8383 10.6418 16.0124 12.1433 17.6918C12.1883 17.7422 12.2429 17.7832 12.3038 17.8126C12.3647 17.8419 12.4308 17.8589 12.4983 17.8627C12.5658 17.8665 12.6334 17.8569 12.6972 17.8345C12.761 17.8122 12.8198 17.7775 12.8702 17.7324C12.9206 17.6874 12.9616 17.6328 12.991 17.5719C13.0203 17.511 13.0373 17.4449 13.0411 17.3774C13.0449 17.3099 13.0353 17.2423 13.013 17.1785C12.9906 17.1147 12.9559 17.0559 12.9108 17.0055C11.5784 15.5147 10.8424 13.585 10.8437 11.5856C10.8437 7.09807 14.4944 3.44729 18.9815 3.44729C23.469 3.44729 27.1198 7.09807 27.1198 11.5856C27.1198 16.0731 23.469 19.7238 18.9815 19.7238C17.2733 19.7238 15.6386 19.2004 14.2538 18.2106C14.1425 18.1376 14.0073 18.1105 13.8764 18.135C13.7456 18.1595 13.6293 18.2336 13.552 18.342C13.4746 18.4503 13.4422 18.5843 13.4615 18.716C13.4807 18.8477 13.5502 18.9668 13.6554 19.0485Z" fill="#58F142"/>
<path d="M0.514844 16.9571C0.799218 16.9571 1.02969 16.7263 1.02969 16.4423V2.08683C1.02989 1.80665 1.14128 1.53801 1.3394 1.3399C1.53751 1.14178 1.80615 1.03039 2.08633 1.03019H24.4605C24.5971 1.03019 24.728 0.975945 24.8246 0.879393C24.9211 0.782841 24.9754 0.651888 24.9754 0.515343C24.9754 0.378798 24.9211 0.247846 24.8246 0.151294C24.728 0.0547424 24.5971 0.000499725 24.4605 0.000499725H2.08633C1.53316 0.00101685 1.00279 0.220992 0.611642 0.612142C0.220492 1.00329 0.000517127 1.53366 0 2.08683V16.4423C0 16.7263 0.230469 16.9571 0.514844 16.9571Z" fill="#58F142"/>
<path d="M27.9137 0H26.2457C26.1092 0 25.9782 0.0542422 25.8817 0.150794C25.7851 0.247346 25.7309 0.378299 25.7309 0.514844C25.7309 0.651389 25.7851 0.782341 25.8817 0.878893C25.9782 0.975445 26.1092 1.02969 26.2457 1.02969H27.9137C28.1938 1.0301 28.4623 1.14156 28.6604 1.33963C28.8584 1.5377 28.9699 1.80622 28.9703 2.08633V21.0844C28.9699 21.3645 28.8584 21.633 28.6604 21.8311C28.4623 22.0291 28.1938 22.1406 27.9137 22.141H2.08633C1.80619 22.1407 1.5376 22.0293 1.33951 21.8312C1.14142 21.6331 1.03 21.3645 1.02969 21.0844V18.1582C1.02969 18.0217 0.975445 17.8907 0.878893 17.7942C0.782341 17.6976 0.651389 17.6434 0.514844 17.6434C0.378299 17.6434 0.247346 17.6976 0.150794 17.7942C0.0542422 17.8907 0 18.0217 0 18.1582V21.0844C0.000620346 21.6375 0.220628 22.1678 0.611756 22.5589C1.00288 22.9501 1.53319 23.1701 2.08633 23.1707H27.9137C28.4668 23.1701 28.9971 22.9501 29.3882 22.5589C29.7794 22.1678 29.9994 21.6375 30 21.0844V2.08672C29.9995 1.53351 29.7795 1.00311 29.3884 0.611895C28.9972 0.220682 28.4669 0.000620528 27.9137 0Z" fill="#58F142"/>
<path d="M12.0412 10.9739C11.7568 10.9739 11.5263 11.2044 11.5263 11.4887C11.5253 12.0411 11.6628 12.5848 11.9261 13.0703C12.1895 13.5558 12.5703 13.9676 13.0337 14.268C13.4962 14.5698 14.0268 14.751 14.5773 14.795C15.1277 14.839 15.6804 14.7444 16.1849 14.52L17.7603 13.8223C17.9522 13.9281 18.1572 14.0079 18.3701 14.0598V18.5255C18.3701 18.8102 18.6005 19.0403 18.8849 19.0403C19.4371 19.0413 19.9807 18.9038 20.466 18.6405C20.9513 18.3772 21.3629 17.9963 21.663 17.5329C21.9652 17.0705 22.1466 16.5398 22.1907 15.9892C22.2348 15.4387 22.1401 14.8858 21.9154 14.3813L21.2177 12.8051C21.3232 12.6133 21.4025 12.409 21.4541 12.1969H25.9205C26.2052 12.1969 26.4353 11.9665 26.4353 11.6821C26.4353 10.5559 25.8716 9.51686 24.9279 8.9028C23.9841 8.28874 22.8056 8.1942 21.7767 8.65045L20.2001 9.3485C20.0086 9.24343 19.8041 9.16385 19.5919 9.11178V4.64499C19.5919 4.36061 19.3611 4.13014 19.0771 4.13014C18.5249 4.12915 17.9812 4.26661 17.4958 4.52995C17.0105 4.79328 16.5988 5.17409 16.2986 5.63756C15.9965 6.09995 15.8152 6.63066 15.7711 7.18121C15.727 7.73176 15.8216 8.28457 16.0462 8.78913L16.7435 10.3645C16.6383 10.5564 16.5587 10.7613 16.5068 10.9739H12.0412ZM15.7677 13.5786C15.42 13.7336 15.039 13.799 14.6595 13.7687C14.28 13.7384 13.9142 13.6134 13.5955 13.4051C13.0987 13.0833 12.7468 12.5808 12.6142 12.004H16.4666C16.5314 12.3907 16.6849 12.7559 16.9115 13.0719L15.7677 13.5786ZM20.8001 16.9712C20.4786 17.4678 19.9763 17.8197 19.3998 17.9524V14.0993C19.7851 14.0343 20.1504 13.882 20.4677 13.654L20.974 14.7981C21.1291 15.146 21.1944 15.5271 21.1641 15.9068C21.1337 16.2864 21.0086 16.6524 20.8001 16.9712ZM22.1939 9.59186C22.5417 9.43696 22.9228 9.37172 23.3024 9.40208C23.6819 9.43245 24.0478 9.55746 24.3666 9.76569C24.8632 10.0876 25.2151 10.5901 25.3478 11.1669H21.4947C21.4299 10.7814 21.2776 10.4159 21.0494 10.0985L22.1939 9.59186ZM20.5002 11.5856C20.5002 11.6067 20.5002 11.6278 20.4986 11.6485L20.4978 11.6579C20.4851 11.9488 20.388 12.2297 20.2185 12.4665C20.0715 12.672 19.8757 12.8378 19.6487 12.9488C19.4217 13.0599 19.1706 13.1128 18.9181 13.1028H18.908C18.6172 13.0901 18.3364 12.9928 18.1002 12.8227C18.0951 12.8192 18.0904 12.8153 18.0849 12.8122C17.8832 12.6646 17.7209 12.4696 17.6124 12.2445C17.5039 12.0193 17.4524 11.7709 17.4626 11.5212L17.463 11.5122C17.4761 11.2208 17.5737 10.9396 17.7439 10.7028C17.8908 10.4973 18.0866 10.3316 18.3135 10.2206C18.5405 10.1095 18.7915 10.0567 19.0439 10.0669L19.0537 10.0673C19.4434 10.0867 19.8109 10.2551 20.0801 10.5376C20.3492 10.8202 20.4996 11.1953 20.5002 11.5856ZM17.1619 6.19889C17.4836 5.70247 17.9858 5.3507 18.5623 5.21803V9.07116C18.1771 9.13593 17.812 9.28799 17.4947 9.51569L16.988 8.37194C16.8331 8.02405 16.7679 7.64289 16.7983 7.26328C16.8286 6.88368 16.9536 6.51774 17.1619 6.19889ZM8.17632 3.3985H2.82124C2.6847 3.3985 2.55374 3.45275 2.45719 3.5493C2.36064 3.64585 2.3064 3.7768 2.3064 3.91335C2.3064 4.04989 2.36064 4.18084 2.45719 4.2774C2.55374 4.37395 2.6847 4.42819 2.82124 4.42819H8.17632C8.31287 4.42819 8.44382 4.37395 8.54037 4.2774C8.63692 4.18084 8.69116 4.04989 8.69116 3.91335C8.69116 3.7768 8.63692 3.64585 8.54037 3.5493C8.44382 3.45275 8.31287 3.3985 8.17632 3.3985ZM8.17632 11.0708H2.82124C2.6847 11.0708 2.55374 11.125 2.45719 11.2216C2.36064 11.3181 2.3064 11.4491 2.3064 11.5856C2.3064 11.7222 2.36064 11.8531 2.45719 11.9497C2.55374 12.0462 2.6847 12.1005 2.82124 12.1005H8.17632C8.31287 12.1005 8.44382 12.0462 8.54037 11.9497C8.63692 11.8531 8.69116 11.7222 8.69116 11.5856C8.69116 11.4491 8.63692 11.3181 8.54037 11.2216C8.44382 11.125 8.31287 11.0708 8.17632 11.0708ZM8.17632 16.1852H2.82124C2.6847 16.1852 2.55374 16.2395 2.45719 16.336C2.36064 16.4326 2.3064 16.5635 2.3064 16.7001C2.3064 16.8366 2.36064 16.9676 2.45719 17.0641C2.55374 17.1607 2.6847 17.2149 2.82124 17.2149H8.17632C8.31287 17.2149 8.44382 17.1607 8.54037 17.0641C8.63692 16.9676 8.69116 16.8366 8.69116 16.7001C8.69116 16.5635 8.63692 16.4326 8.54037 16.336C8.44382 16.2395 8.31287 16.1852 8.17632 16.1852ZM8.17632 13.6282H2.82124C2.68817 13.6334 2.56227 13.6899 2.46995 13.7859C2.37763 13.8819 2.32607 14.0099 2.32607 14.143C2.32607 14.2762 2.37763 14.4042 2.46995 14.5002C2.56227 14.5962 2.68817 14.6527 2.82124 14.6579H8.17632C8.31287 14.6579 8.44382 14.6036 8.54037 14.5071C8.63692 14.4105 8.69116 14.2796 8.69116 14.143C8.69116 14.0065 8.63692 13.8755 8.54037 13.779C8.44382 13.6824 8.31287 13.6282 8.17632 13.6282ZM8.17632 18.7426H2.82124C2.75363 18.7426 2.68668 18.756 2.62422 18.7818C2.56175 18.8077 2.505 18.8456 2.45719 18.8934C2.40938 18.9412 2.37146 18.998 2.34559 19.0605C2.31971 19.1229 2.3064 19.1899 2.3064 19.2575C2.3064 19.3251 2.31971 19.392 2.34559 19.4545C2.37146 19.517 2.40938 19.5737 2.45719 19.6215C2.505 19.6693 2.56175 19.7073 2.62422 19.7331C2.68668 19.759 2.75363 19.7723 2.82124 19.7723H8.17632C8.24393 19.7723 8.31088 19.759 8.37334 19.7331C8.43581 19.7073 8.49256 19.6693 8.54037 19.6215C8.58818 19.5737 8.6261 19.517 8.65197 19.4545C8.67785 19.392 8.69116 19.3251 8.69116 19.2575C8.69116 19.1899 8.67785 19.1229 8.65197 19.0605C8.6261 18.998 8.58818 18.9412 8.54037 18.8934C8.49256 18.8456 8.43581 18.8077 8.37334 18.7818C8.31088 18.756 8.24393 18.7426 8.17632 18.7426ZM8.17632 8.51335H7.59233C7.45579 8.51335 7.32484 8.56759 7.22829 8.66414C7.13173 8.76069 7.07749 8.89164 7.07749 9.02819C7.07749 9.16473 7.13173 9.29569 7.22829 9.39224C7.32484 9.48879 7.45579 9.54303 7.59233 9.54303H8.17593C8.31247 9.54309 8.44345 9.48889 8.54004 9.39238C8.63662 9.29586 8.69092 9.16493 8.69097 9.02838C8.69102 8.89184 8.63683 8.76087 8.54031 8.66428C8.4438 8.56769 8.31287 8.5134 8.17632 8.51335ZM2.82124 9.54303H5.87632C6.01286 9.54303 6.14382 9.48879 6.24037 9.39224C6.33692 9.29569 6.39116 9.16473 6.39116 9.02819C6.39116 8.89164 6.33692 8.76069 6.24037 8.66414C6.14382 8.56759 6.01286 8.51335 5.87632 8.51335H2.82124C2.6847 8.51335 2.55374 8.56759 2.45719 8.66414C2.36064 8.76069 2.3064 8.89164 2.3064 9.02819C2.3064 9.16473 2.36064 9.29569 2.45719 9.39224C2.55374 9.48879 2.6847 9.54303 2.82124 9.54303ZM8.17632 5.95592H2.82124C2.6847 5.95592 2.55374 6.01017 2.45719 6.10672C2.36064 6.20327 2.3064 6.33422 2.3064 6.47077C2.3064 6.60731 2.36064 6.73827 2.45719 6.83482C2.55374 6.93137 2.6847 6.98561 2.82124 6.98561H8.17632C8.31287 6.98561 8.44382 6.93137 8.54037 6.83482C8.63692 6.73827 8.69116 6.60731 8.69116 6.47077C8.69116 6.33422 8.63692 6.20327 8.54037 6.10672C8.44382 6.01017 8.31287 5.95592 8.17632 5.95592Z" fill="#58F142"/>
</svg>
