<svg width="30" height="24" viewBox="0 0 30 24" fill="none" xmlns="http://www.w3.org/2000/svg">
<rect width="30" height="24" rx="11" fill="#B97777"/>
<path d="M20.6892 1.84668C21.977 2.2874 22.7585 2.86594 22.7585 3.5C22.7585 4.88071 19.0528 6 14.4822 6C9.91176 5.99992 6.20679 4.88066 6.20679 3.5C6.20679 2.86613 6.98806 2.28832 8.27515 1.84766V2.73047C7.61936 2.95611 7.24097 3.21743 7.24097 3.5C7.24097 4.3284 10.483 4.99996 14.4822 5C18.4815 5 21.7244 4.32843 21.7244 3.5C21.7244 3.2173 21.3455 2.95521 20.6892 2.72949V1.84668Z" fill="white"/>
<rect x="13" y="3" width="3.10345" height="0.75" fill="white"/>
</svg>
