<svg width="23" height="30" viewBox="0 0 23 30" fill="none" xmlns="http://www.w3.org/2000/svg">
<path d="M11.0095 14.541C4.83593 14.541 0 19.3767 0 25.55C0 25.6796 0.105007 25.7844 0.23439 25.7844H21.7846C21.914 25.7844 22.019 25.6796 22.019 25.55C22.019 19.3767 17.1831 14.541 11.0095 14.541ZM0.471358 25.3157C0.591834 19.5176 5.1772 15.0098 11.0095 15.0098C16.8418 15.0098 21.4272 19.5176 21.5479 25.3157H0.471358Z" fill="white"/>
<path d="M16.5029 16.2765C20.8229 18.6164 21.8029 23.4012 21.7529 25.5011H0.302882C0.182882 24.9011 0.602882 22.8012 0.827882 21.8263C2.14788 18.4664 4.62788 16.7265 5.70288 16.2765C10.0829 13.7566 14.7279 15.2265 16.5029 16.2765Z" fill="#F2BA42"/>
<path d="M9.22144 14.7721H12.7464L12.4464 8.92232L12.1464 8.47234L11.7714 8.09735H10.7214H10.1214L9.67144 8.47234L9.22144 14.7721Z" fill="#F2BA42"/>
<path d="M15.436 17.2657C14.0833 16.5375 12.5525 16.1524 11.0093 16.1524C10.8799 16.1524 10.7749 16.2572 10.7749 16.3868C10.7749 16.5164 10.8799 16.6211 11.0093 16.6211C12.4752 16.6211 13.9291 16.9868 15.2138 17.6787C15.2492 17.6977 15.2871 17.7066 15.3246 17.7066C15.4081 17.7066 15.4889 17.6618 15.5311 17.583C15.5925 17.4694 15.5499 17.3273 15.436 17.2657Z" fill="white"/>
<path d="M18.0361 19.3324C17.5959 18.8332 17.1022 18.3801 16.5685 17.9852C16.4649 17.9078 16.3177 17.9306 16.2409 18.0342C16.1638 18.1382 16.1858 18.285 16.2899 18.3618C16.7971 18.7371 17.2661 19.1679 17.6845 19.6422C17.7306 19.695 17.7953 19.7217 17.8603 19.7217C17.9153 19.7217 17.9704 19.7025 18.0152 19.6631C18.1125 19.5776 18.1216 19.4294 18.0361 19.3324Z" fill="white"/>
<path d="M14.3953 25.5285C14.3604 25.4041 14.2317 25.3312 14.1066 25.3661C13.9821 25.4008 13.9092 25.5302 13.9441 25.6548C14.0184 25.9204 14.0562 26.1972 14.0562 26.4768C14.0562 28.1608 12.6859 29.5312 11.0016 29.5312C9.31729 29.5312 7.94705 28.1611 7.94705 26.4768C7.94705 26.1986 7.98455 25.923 8.05839 25.6567C8.09308 25.532 8.01995 25.4029 7.89525 25.3682C7.77079 25.3344 7.64117 25.4069 7.60672 25.5313C7.52163 25.8381 7.47827 26.1564 7.47827 26.4768C7.47827 28.4196 9.05876 30 11.0016 30C12.9445 30 14.5252 28.4196 14.5247 26.4768C14.5247 26.1543 14.4811 25.8353 14.3953 25.5285Z" fill="white"/>
<path d="M12.7449 29.3233C14.3649 28.1234 14.3699 26.4234 14.1699 25.7235H7.79491C7.37491 27.8834 8.66991 29.0233 9.36991 29.3233C10.3299 30.1033 12.0199 29.6483 12.7449 29.3233Z" fill="#F2BA42"/>
<path d="M13.2688 27.1087C13.1474 27.0628 13.0121 27.1242 12.9667 27.2454C12.6617 28.0554 11.8749 28.5994 11.009 28.5994C10.8797 28.5994 10.7747 28.7041 10.7747 28.8338C10.7747 28.9634 10.8797 29.0681 11.009 29.0681C12.069 29.0681 13.0321 28.4023 13.4054 27.4106C13.4512 27.2894 13.39 27.1542 13.2688 27.1087Z" fill="white"/>
<path d="M13.0139 14.9359L12.7001 8.89636C12.6663 8.25744 12.119 7.73735 11.4794 7.73735H10.5517C9.91226 7.73735 9.36449 8.25744 9.33074 8.89636L9.01595 14.8803C9.00916 15.0097 9.10854 15.1201 9.23769 15.1269C9.36637 15.1325 9.47723 15.0345 9.48403 14.9051L9.79881 8.9212C9.81921 8.53354 10.164 8.20611 10.5517 8.20611H11.4794C11.8671 8.20611 12.2116 8.56096 12.2318 8.94862L12.5456 14.9602C12.5522 15.0854 12.6558 15.2375 12.7795 15.2375C12.7838 15.2375 12.788 15.2375 12.792 15.2375C12.9214 15.0031 13.0207 15.065 13.0139 14.9359Z" fill="white"/>
<path d="M11.0086 0C10.8792 0 10.7742 0.114943 10.7742 0.257143V8.74286C10.7742 8.88506 10.8792 9 11.0086 9C11.1379 9 11.2429 8.88506 11.2429 8.74286V0.257143C11.2429 0.114943 11.1379 0 11.0086 0Z" fill="#F2BA42"/>
</svg>
